<svg xmlns="http://www.w3.org/2000/svg">
  <symbol id='nolea-logo' xmlns="http://www.w3.org/2000/svg" width="106" height="32" fill="none">
    <path fill="#7546DB"
      d="M72.585 23.74h-3.976V5.86h3.98l-.004 17.88Zm16.61-10.279c-.551-2.03-1.68-3.636-3.644-4.54a8.657 8.657 0 0 0-5.232-.59c-2.445.435-4.226 1.76-5.236 4.035a9.554 9.554 0 0 0-.63 2.433 13.115 13.115 0 0 0 .054 3.474c.344 2.41 1.616 4.134 3.832 5.174 2.042.95 4.15 1.039 6.294.496 1.888-.482 3.27-1.632 4.227-3.302.24-.398.382-.848.415-1.311h-3.813a.357.357 0 0 0-.36.215 2.88 2.88 0 0 1-1.924 1.416 4.647 4.647 0 0 1-2.135-.021c-1.862-.466-2.636-1.975-2.636-3.668h11.068a.62.62 0 0 0 .03-.123c0-1.235.018-2.478-.31-3.688Zm-10.68 1.215c.167-1.706 1.204-3.258 3.423-3.235 2.118.022 3.39 1.41 3.409 3.235h-6.833Zm22.458 7.499c-.016-.073-.022-.148-.037-.265-.237.216-.434.403-.651.587-.96.828-2.034 1.432-3.315 1.58-1.6.188-3.093-.05-4.353-1.143a3.806 3.806 0 0 1-1.263-2.39 5.592 5.592 0 0 1 .211-2.726c.476-1.364 1.487-2.18 2.821-2.647a13.694 13.694 0 0 1 2.782-.585 80.677 80.677 0 0 0 2.357-.359c.17-.033.334-.088.489-.164.538-.244.846-.63.802-1.25-.041-.586-.277-1.03-.856-1.235a4.845 4.845 0 0 0-2.91-.108c-.855.215-1.202.89-1.392 1.673-.016.058-.022.122-.037.177a.363.363 0 0 1-.042.073h-3.79a5.928 5.928 0 0 1 .57-2.384c.651-1.354 1.752-2.156 3.18-2.52 2.458-.621 4.872-.49 7.194.588 1.222.571 1.818 1.59 1.98 2.884.044.42.064.842.059 1.264v7.159c0 .593.049 1.186.099 1.776.066.57.325 1.1.734 1.503h-4.052s-.338-.48-.58-1.488Zm-.103-5.837-.098-.03c-.635.399-1.345.54-2.078.68-.713.128-1.418.296-2.112.505a1.765 1.765 0 0 0-1.302 1.724c-.034.915.218 1.745 1.509 2a3.417 3.417 0 0 0 1.664-.123c1.152-.347 2.037-1 2.233-2.25.122-.821.122-1.669.179-2.508l.005.002Zm-41.83 7.909a9.55 9.55 0 0 1-3.625-.715c-1.712-.745-2.76-2.092-3.472-3.74-.651-1.523-.797-3.12-.638-4.755a8.586 8.586 0 0 1 1.736-4.43 6.089 6.089 0 0 1 3.64-2.304 10.217 10.217 0 0 1 5.208.122c1.8.53 3.039 1.724 3.913 3.348.889 1.67 1.158 3.45.995 5.317a8.569 8.569 0 0 1-1.705 4.525 6.22 6.22 0 0 1-4.035 2.407c-.672.118-1.348.154-2.017.225Zm3.687-8.119c-.09-.636-.13-1.293-.273-1.907-.367-1.581-1.367-2.69-3.057-2.833-1.659-.147-3.02.633-3.592 2.192a7.655 7.655 0 0 0-.17 4.568c.386 1.56 1.498 2.832 3.618 2.73 1.423-.07 2.387-.771 2.946-2.044.367-.856.464-1.774.532-2.706h-.004ZM39.67 23.67h-3.955V8.58h3.82v2.102l.056.02.401-.546c1.148-1.628 2.793-2.1 4.687-1.972a6.235 6.235 0 0 1 2.37.611 4.023 4.023 0 0 1 1.544 1.272 3.97 3.97 0 0 1 .733 1.853c.091.578.138 1.162.14 1.746.01 3.221 0 6.444 0 9.668v.346h-4.084v-9.526c0-.343-.041-.685-.122-1.02a2.064 2.064 0 0 0-.686-1.168 2.098 2.098 0 0 0-1.267-.498 3.67 3.67 0 0 0-1.788.216c-.931.403-1.434 1.157-1.627 2.1-.13.65-.196 1.31-.197 1.973-.022 2.517 0 5.032 0 7.546l-.025.367ZM6.616 2.57.625 9.189a2.416 2.416 0 0 0 .091 3.338l1.785 1.77a2.419 2.419 0 0 1 0 3.435L.77 19.444a2.416 2.416 0 0 0-.093 3.335l5.991 6.647a2.416 2.416 0 0 0 3.499.096l12.716-12.634a1.223 1.223 0 0 0 0-1.731L10.112 2.476a2.416 2.416 0 0 0-3.496.094Z" />
    <path fill="#00FF9B"
      d="M15.389.719h8.965a1.88 1.88 0 0 1 1.88 1.88v3.89a1.881 1.881 0 0 0 1.881 1.88h3.948a1.88 1.88 0 0 1 1.88 1.887v11.55a1.88 1.88 0 0 1-1.88 1.88h-3.946a1.882 1.882 0 0 0-1.88 1.88v3.847a1.88 1.88 0 0 1-1.88 1.875H15.44a1.881 1.881 0 0 1-1.326-3.215l10.76-10.69a1.879 1.879 0 0 0 0-2.664L14.057 3.93A1.88 1.88 0 0 1 15.389.72Z" />
  </symbol>
</svg>